<svg xmlns="http://www.w3.org/2000/svg" viewBox="0 0 24 24">
  <path fill="#3DDC84" d="M17.523 15.341a.96.96 0 01-.96-.96.96.96 0 01.96-.96.96.96 0 01.96.96.96.96 0 01-.96.96m-11.046 0a.96.96 0 01-.96-.96.96.96 0 01.96-.96.96.96 0 01.96.96.96.96 0 01-.96.96m11.41-6.023l1.924-3.33a.4.4 0 00-.146-.546.4.4 0 00-.546.147L17.17 8.93C15.88 8.326 14.45 8 12.9 8s-2.98.326-4.27.93L6.882 5.588a.4.4 0 00-.546-.147.4.4 0 00-.146.546l1.924 3.33C5.26 10.713 3.5 13.074 3.5 15.85v.15h18v-.15c0-2.776-1.76-5.137-4.613-6.532z"/>
</svg>
