<svg xmlns="http://www.w3.org/2000/svg" viewBox="0 0 814 1000">
  <path fill="#999" d="M788.1 340.9c-5.8 4.5-108.2 62.2-108.2 190.5 0 148.4 130.3 200.9 134.2 202.2-.6 3.2-20.7 71.9-68.7 141.9-42.8 61.6-87.5 123.1-155.5 123.1s-85.5-39.5-164-39.5c-76 0-103.7 40.8-165.9 40.8s-105-38.8-155.5-127.4C46 790.7 0 663 0 541.8c0-207.5 135.4-317.3 269-317.3 70.1 0 128.4 46.4 172.5 46.4 42.8 0 109.1-49.1 188.3-49.1 28.6-.1 108.2 6.4 160.3 99zM554.1 58.3c-31 37.6-80.4 67-128.8 67-6.4 0-12.8-.6-19.2-1.9-1.3-6.4-1.9-12.8-1.9-20.5C404.2 72.3 448.4 37 485.8 15c36-21.3 93.5-37 135.8-38.3 1.3 7 1.9 14 1.9 20.5 0 49.7-32.9 104.6-69.4 141.1z"/>
</svg>
